# xmcd
#
# Track frame offsets:
#	150
#	6317
#	18812
#	34700
#	54645
#	73730
#	86497
#	103980
#	124002
#	134002
#	153387
#	167342
#	180772
#	195092
#
# Disc length: 2941 seconds
#
# Revision: 1
# Processed by: cddbd v1.5.1PL0 Copyright (c) Steve Scherf et al.
# Submitted via: CDex 1.50Beta5
#
DISCID=aa0b7b0e
DTITLE=By Phar Tha Dopest - By Phar Tha Dopest
DYEAR=1900
DGENRE=
TTITLE0=イントロ
TTITLE1=ああバイファー・ザ・ドーペスト
TTITLE2=言わなくていい
TTITLE3=PAY BACK(報復)’98
TTITLE4=切り札のカード
TTITLE5=大丈夫
TTITLE6=無敵の捜査網
TTITLE7=ある意味規則的な生活の中の贅沢
TTITLE8=ALWAYS
TTITLE9=未来予定図
TTITLE10=人生ゲーム
TTITLE11=PARTY(理想)
TTITLE12=by phar the dopest/パーティ(現実)
TTITLE13=アウトロ
EXTD=
EXTT0=
EXTT1=
EXTT2=
EXTT3=
EXTT4=
EXTT5=
EXTT6=
EXTT7=
EXTT8=
EXTT9=
EXTT10=
EXTT11=
EXTT12=
EXTT13=
PLAYORDER=
